<?xml version="1.0" encoding="UTF-8" standalone="no"?>
<svg
   xmlns:osb="http://www.openswatchbook.org/uri/2009/osb"
   xmlns:dc="http://purl.org/dc/elements/1.1/"
   xmlns:cc="http://creativecommons.org/ns#"
   xmlns:rdf="http://www.w3.org/1999/02/22-rdf-syntax-ns#"
   xmlns:svg="http://www.w3.org/2000/svg"
   xmlns="http://www.w3.org/2000/svg"
   xmlns:sodipodi="http://sodipodi.sourceforge.net/DTD/sodipodi-0.dtd"
   xmlns:inkscape="http://www.inkscape.org/namespaces/inkscape"
   version="1.1"
   viewBox="0 0 72 72"
   id="emoji"
   sodipodi:docname="cute_spy_2.svg"
   inkscape:version="0.92.4 (5da689c313, 2019-01-14)">
  <sodipodi:namedview
     pagecolor="#ffffff"
     bordercolor="#666666"
     borderopacity="1"
     objecttolerance="10"
     gridtolerance="10"
     guidetolerance="10"
     inkscape:pageopacity="0"
     inkscape:pageshadow="2"
     inkscape:window-width="1276"
     inkscape:window-height="1401"
     id="namedview38"
     showgrid="false"
     showguides="true"
     inkscape:guide-bbox="true"
     inkscape:zoom="11.598515"
     inkscape:cx="25.369286"
     inkscape:cy="29.697691"
     inkscape:window-x="1280"
     inkscape:window-y="18"
     inkscape:window-maximized="0"
     inkscape:current-layer="emoji">
    <sodipodi:guide
       position="14.202284,34.023747"
       orientation="1,0"
       id="guide222"
       inkscape:locked="false" />
    <sodipodi:guide
       position="58.024668,26.555123"
       orientation="1,0"
       id="guide224"
       inkscape:locked="false" />
  </sodipodi:namedview>
  <metadata
     id="metadata69">
    <rdf:RDF>
      <cc:Work
         rdf:about="">
        <dc:format>image/svg+xml</dc:format>
        <dc:type
           rdf:resource="http://purl.org/dc/dcmitype/StillImage" />
        <dc:title></dc:title>
      </cc:Work>
    </rdf:RDF>
  </metadata>
  <defs
     id="defs67">
    <linearGradient
       osb:paint="solid"
       id="linearGradient4861">
      <stop
         id="stop4859"
         offset="0"
         style="stop-color:#ffffff;stop-opacity:1;" />
    </linearGradient>
  </defs>
  <path
     inkscape:connector-curvature="0"
     style="fill:#6846a6;fill-opacity:1;stroke:none;stroke-width:2.11125875;stroke-miterlimit:10"
     stroke-miterlimit="10"
     d="m 36.155998,3.8215188 c 11.564832,0 20.939972,9.5303422 20.939972,21.2866262 v 10.694507 5.05121 H 15.216026 v -5.05121 -10.694507 c 0,-11.756284 9.375139,-21.2866262 20.939972,-21.2866262"
     id="path71" />
  <polygon
     style="fill:#ff79c6;stroke:none;stroke-width:2;stroke-linecap:round;stroke-linejoin:round;stroke-miterlimit:10;fill-opacity:1"
     stroke-miterlimit="10"
     points="46.6142,38.4016 62.1381,30.6897 62.1381,46.1136 46.6142,38.4016 31.0902,46.1136 31.0902,30.6897 "
     id="polygon73"
     transform="matrix(1.0469986,0,0,1.0643313,-1.535952,-13.207782)" />
  <g
     id="line-5"
     transform="matrix(1.0469986,0,0,1.0643313,-1.535952,-13.207782)">
    <path
       id="path79"
       d="M 56,43.0481"
       stroke-miterlimit="10"
       style="fill:none;stroke:#000000;stroke-width:2;stroke-linecap:round;stroke-linejoin:round;stroke-miterlimit:10"
       inkscape:connector-curvature="0" />
    <line
       id="line81"
       stroke-miterlimit="10"
       y2="50.794102"
       y1="50.794102"
       x2="68"
       x1="4"
       style="fill:none;stroke:#000000;stroke-width:2;stroke-linecap:round;stroke-linejoin:round;stroke-miterlimit:10" />
    <polygon
       id="polygon83"
       points="31.0902,46.1136 31.0902,30.6897 46.6142,38.4016 62.1381,30.6897 62.1381,46.1136 46.6142,38.4016 "
       stroke-miterlimit="10"
       style="fill:none;stroke:#000000;stroke-width:2;stroke-linecap:round;stroke-linejoin:round;stroke-miterlimit:10" />
    <path
       id="path85"
       d="M 16,46.0481 V 36 c 0,-11.0457 8.9543,-20 20,-20 8.4569,0 15.6878,5.2488 18.6127,12.6665"
       stroke-miterlimit="10"
       style="fill:none;stroke:#000000;stroke-width:2;stroke-linecap:round;stroke-linejoin:round;stroke-miterlimit:10"
       inkscape:connector-curvature="0" />
  </g>
  <g
     transform="matrix(0.69008565,0,0,0.69008565,11.081294,31.629165)"
     id="color">
    <path
       style="fill:#3f3f3f;stroke:#3f3f3f;stroke-miterlimit:10"
       inkscape:connector-curvature="0"
       stroke-miterlimit="10"
       d="m 36.1871,33.1543 c 1.0309,-0.1557 2.3936,-0.355 3.1719,3.5553 0.5088,2.5561 2.4518,2.3815 3.5921,4.0059 2.3054,3.2843 7.0505,5.5111 11.3652,5.5111 6.9036,0 12.5,-5.5964 12.5,-12.5 l 0.105,-4.9141 1.895,0.0501 v -4.1273 c 0,0 -18.9318,-16.1788 -29.4804,5.3212 H 36.3547 35.8932 32.912 C 22.3634,8.5565 3.4316,24.7353 3.4316,24.7353 v 4.1273 l 1.895,-0.0501 0.105,4.9141 c 0,6.9036 5.5964,12.5 12.5,12.5 4.3147,0 9.1189,-2.1861 11.3652,-5.5111"
       id="path136" />
    <path
       style="fill:#3f3f3f;stroke:#3f3f3f;stroke-miterlimit:10"
       inkscape:connector-curvature="0"
       stroke-miterlimit="10"
       d="m 36.1871,33.1543 c 1.0309,-0.1557 2.3936,-0.355 3.1719,3.5553 0.5088,2.5561 2.4518,2.3815 3.5921,4.0059 2.3054,3.2843 7.0505,5.5111 11.3652,5.5111"
       id="path138" />
    <path
       style="fill:#3f3f3f;stroke:#3f3f3f;stroke-miterlimit:10"
       inkscape:connector-curvature="0"
       stroke-miterlimit="10"
       d="m 18.2602,45.9046 c 4.3147,0 9.0598,-2.2268 11.3652,-5.5111 1.1402,-1.6244 2.2768,-1.3775 3.6757,-3.6507 0.2905,-0.4721 -3.6316,-4.9026 3.0884,-3.9105"
       id="path140" />
    <path
       style="fill:#3f3f3f;stroke:#9b9b9a;stroke-width:2;stroke-miterlimit:10"
       inkscape:connector-curvature="0"
       stroke-miterlimit="10"
       d="M 32.6433,38.8078"
       id="path142" />
  </g>
  <g
     transform="matrix(0.69008565,0,0,0.69008565,11.081294,31.629165)"
     id="line">
    <path
       style="fill:none;stroke:#000000;stroke-width:2;stroke-linecap:round;stroke-linejoin:round;stroke-miterlimit:10"
       inkscape:connector-curvature="0"
       stroke-miterlimit="10"
       d="m 29.2969,40.7155 c -2.2463,3.325 -7.0505,5.5111 -11.3652,5.5111 -6.9036,0 -12.5,-5.5964 -12.5,-12.5 l -0.105,-4.9141 -1.895,0.0501 v -4.1273 c 0,0 18.9318,-16.1788 29.4804,5.3212 h 2.9812 0.4615 2.9812 c 10.5486,-21.5 29.4804,-5.3212 29.4804,-5.3212 v 4.1273 l -1.895,-0.0501 -0.105,4.9141 c 0,6.9036 -5.5964,12.5 -12.5,12.5 -4.3147,0 -9.1189,-2.1861 -11.3652,-5.5111"
       id="path148" />
    <path
       style="fill:none;stroke:#000000;stroke-width:2;stroke-linecap:round;stroke-linejoin:round;stroke-miterlimit:10"
       inkscape:connector-curvature="0"
       stroke-miterlimit="10"
       d="m 33.359,36.7096 c 0,-1.6569 1.3431,-3 3,-3 1.6569,0 3,1.3431 3,3"
       id="path150-3" />
    <circle
       style="fill:none;stroke:#000000;stroke-width:2;stroke-linecap:round;stroke-linejoin:round;stroke-miterlimit:10"
       cx="18.364401"
       cy="32.5611"
       r="9.5797997"
       stroke-miterlimit="10"
       id="circle152" />
    <circle
       style="fill:none;stroke:#000000;stroke-width:2;stroke-linecap:round;stroke-linejoin:round;stroke-miterlimit:10"
       cx="53.883598"
       cy="32.5611"
       r="9.5797997"
       stroke-miterlimit="10"
       id="circle154" />
  </g>
  <path
     style="fill:#6846a6;fill-opacity:1;stroke-width:0.09864505"
     d="m 22.270854,59.798973 c -2.448472,-0.674161 -4.196237,-2.81046 -4.382306,-5.356505 -0.205409,-2.810692 1.848493,-5.500369 4.649245,-6.088395 1.350425,-0.283527 2.60143,-0.118437 3.883744,0.512521 1.399228,0.688482 2.618067,2.196156 3.018609,3.733941 0.240517,0.923406 0.199365,2.346271 -0.09479,3.277434 -0.598316,1.894005 -2.21728,3.425439 -4.140212,3.916365 -0.710546,0.181404 -2.283275,0.18389 -2.934291,0.0047 z"
     id="path212"
     inkscape:connector-curvature="0" />
  <path
     style="fill:#6846a6;fill-opacity:1;stroke-width:0.09864505"
     d="m 46.762221,59.787492 c -1.043168,-0.280439 -1.785855,-0.723447 -2.622274,-1.564168 -1.200503,-1.206678 -1.725173,-2.443102 -1.725173,-4.065496 0,-1.08179 0.138909,-1.700116 0.594782,-2.647546 1.409392,-2.929116 4.857701,-4.095219 7.874073,-2.662752 0.942147,0.447424 2.109832,1.582397 2.572695,2.500626 0.894493,1.7745 0.907084,3.65716 0.03628,5.426901 -0.693514,1.409452 -2.186834,2.611524 -3.743023,3.013008 -0.754085,0.194547 -2.262657,0.194258 -2.987371,-5.92e-4 z"
     id="path214"
     inkscape:connector-curvature="0" />
  <path
     style="fill:#ff79c6;fill-opacity:1;stroke-width:0.09864505"
     d="m 22.340503,62.734654 c -1.232129,-0.170396 -2.885334,-0.897373 -3.869344,-1.7015 -1.166675,-0.953394 -2.120108,-2.389405 -2.589456,-3.900103 -0.225892,-0.727079 -0.385775,-2.683928 -0.39328,-4.813431 -0.0035,-0.996617 -0.01929,-1.08045 -0.245882,-1.307047 -0.177272,-0.177274 -0.349023,-0.242129 -0.641191,-0.242129 h -0.399066 v -0.882822 -0.882821 l 0.657677,-0.46931 c 1.036442,-0.739589 2.670266,-1.634038 3.824695,-2.093854 4.661222,-1.856595 8.480946,-1.211824 11.519241,1.944452 0.987161,1.025495 1.562352,1.816339 2.437955,3.351994 0.403013,0.706816 0.750235,1.198948 0.89904,1.27425 0.312566,0.158171 4.46112,0.174948 4.906063,0.01983 0.240855,-0.08398 0.388254,-0.268927 0.715373,-0.897691 1.015929,-1.952747 2.56292,-3.88806 3.92797,-4.91396 2.797014,-2.102096 6.177856,-2.368147 10.184862,-0.801485 1.122261,0.438782 2.821994,1.368208 3.870567,2.116455 l 0.657676,0.469309 v 0.882821 0.882821 H 57.40434 c -0.284436,0 -0.463981,0.06493 -0.625063,0.225999 -0.219017,0.219018 -0.22796,0.299019 -0.289443,2.589433 -0.06823,2.541778 -0.19958,3.39198 -0.698208,4.519471 -0.937026,2.118777 -2.852885,3.76213 -5.1598,4.425869 -1.054923,0.303521 -3.157374,0.301947 -4.288555,-0.0033 -2.105708,-0.568054 -3.844647,-1.657019 -4.978879,-3.117897 -0.238272,-0.306888 -0.365124,-0.386358 -0.616726,-0.386358 -0.190207,0 -0.399475,0.08272 -0.523808,0.207052 l -0.207055,0.207056 -0.555517,-0.377246 c -0.562979,-0.382316 -1.28825,-1.106685 -1.28825,-1.286655 0,-0.05409 0.08556,-0.09836 0.19013,-0.09836 0.272342,0 0.599031,-0.462513 0.599031,-0.848086 0,-0.553413 -0.360036,-1.345851 -0.812879,-1.789146 -1.407683,-1.378003 -3.618981,-1.023628 -4.470294,0.716392 -0.165311,0.337884 -0.265666,0.716438 -0.275228,1.038181 -0.01318,0.443549 0.01868,0.533307 0.256756,0.723311 l 0.271801,0.216923 -0.370447,0.350337 c -0.203745,0.192685 -0.650444,0.561611 -0.992664,0.819838 -0.556989,0.420278 -0.639722,0.454494 -0.789161,0.326384 -0.438295,-0.37574 -0.819358,-0.240029 -1.397306,0.497632 -1.592783,2.032934 -5.236231,3.395351 -8.042272,3.00729 z m 2.889526,-1.467027 c 1.345033,-0.276815 2.507294,-0.881519 3.526116,-1.834577 2.403891,-2.248724 3.002156,-5.82219 1.466797,-8.761252 -1.770352,-3.388899 -5.97799,-4.826785 -9.494925,-3.244723 -4.138881,1.861837 -5.574089,7.121028 -2.971752,10.889716 0.39583,0.573239 1.376273,1.508738 2.037641,1.944232 0.674676,0.444257 1.885465,0.931314 2.618859,1.053473 0.841598,0.140184 2.002209,0.120874 2.817264,-0.04686 z m 25.125673,-0.140679 c 2.85495,-0.903519 4.825062,-3.260233 5.182429,-6.199397 0.381105,-3.134375 -1.367333,-6.190911 -4.30277,-7.521902 -0.952818,-0.432028 -1.823045,-0.607265 -3.000529,-0.604212 -1.263746,0.0033 -2.245013,0.24144 -3.338341,0.810251 -3.334387,1.73474 -4.828726,5.72369 -3.435951,9.171852 0.399634,0.989391 0.86299,1.683564 1.647279,2.46785 1.047458,1.047461 2.231971,1.700857 3.683375,2.031806 0.887516,0.20237 2.679552,0.123817 3.564508,-0.156248 z"
     id="path216"
     inkscape:connector-curvature="0" />
</svg>
