<?xml version="1.0" encoding="UTF-8" standalone="no"?>
<svg
   xmlns:dc="http://purl.org/dc/elements/1.1/"
   xmlns:cc="http://creativecommons.org/ns#"
   xmlns:rdf="http://www.w3.org/1999/02/22-rdf-syntax-ns#"
   xmlns:svg="http://www.w3.org/2000/svg"
   xmlns="http://www.w3.org/2000/svg"
   xmlns:sodipodi="http://sodipodi.sourceforge.net/DTD/sodipodi-0.dtd"
   xmlns:inkscape="http://www.inkscape.org/namespaces/inkscape"
   id="emoji"
   viewBox="0 0 72 72"
   version="1.1"
   sodipodi:docname="money_2.svg"
   inkscape:version="0.92.4 (5da689c313, 2019-01-14)">
  <metadata
     id="metadata2409">
    <rdf:RDF>
      <cc:Work
         rdf:about="">
        <dc:format>image/svg+xml</dc:format>
        <dc:type
           rdf:resource="http://purl.org/dc/dcmitype/StillImage" />
        <dc:title></dc:title>
      </cc:Work>
    </rdf:RDF>
  </metadata>
  <defs
     id="defs2407" />
  <sodipodi:namedview
     pagecolor="#ffffff"
     bordercolor="#666666"
     borderopacity="1"
     objecttolerance="10"
     gridtolerance="10"
     guidetolerance="10"
     inkscape:pageopacity="0"
     inkscape:pageshadow="2"
     inkscape:window-width="1276"
     inkscape:window-height="1401"
     id="namedview2405"
     showgrid="false"
     inkscape:zoom="6.5555556"
     inkscape:cx="33.098843"
     inkscape:cy="46.790503"
     inkscape:window-x="1280"
     inkscape:window-y="18"
     inkscape:window-maximized="0"
     inkscape:current-layer="emoji" />
  <rect
     style="fill:#008000;stroke:none;stroke-width:0.9999904"
     id="rect2345"
     transform="rotate(-45)"
     height="28.581224"
     width="17.999826"
     y="39.300579"
     x="-8.6467724" />
  <path
     style="fill:#ff79c6;stroke:none;stroke-width:2;stroke-linecap:round;stroke-miterlimit:10;fill-opacity:1"
     inkscape:connector-curvature="0"
     id="path2347"
     d="m 13.9792,56.7778 c 0.3645,0.3645 0.8533,0.5189 1.325,0.4674 0,0 8.9017,0.0515 13.9615,-4.8025 C 29.33,52.387 29.39,52.327 29.45,52.2669 c 1.8352,-1.8352 1.8309,-4.8068 0,-6.6377 -1.831,-1.831 -4.8025,-1.8352 -6.6377,0 l -8.8331,8.8331 c -0.6389,0.639 -0.6389,1.6766 0,2.3155 z"
     stroke-miterlimit="10" />
  <path
     style="fill:#ffffff;stroke:none;stroke-width:2;stroke-linecap:round;stroke-miterlimit:10"
     inkscape:connector-curvature="0"
     id="path2349"
     d="m 22.1465,53.0191 c 0.12,0.81 -0.36,1.98 -1.31,2.98 -0.29,0.3 -0.59,0.56 -0.9,0.76"
     stroke-miterlimit="10" />
  <path
     style="fill:#ffffff;stroke:none;stroke-width:2;stroke-linecap:round;stroke-miterlimit:10"
     inkscape:connector-curvature="0"
     id="path2351"
     d="m 17.9665,55.6591 c -0.08,0.58 -0.36,1.11 -0.8,1.49"
     stroke-miterlimit="10" />
  <circle
     style="fill:#50fa7b;stroke:none;stroke-width:0.9999904;fill-opacity:1"
     r="2.3279777"
     id="ellipse2353"
     transform="rotate(-45)"
     cy="41.421196"
     cx="7.2668796" />
  <circle
     style="fill:#50fa7b;stroke:none;stroke-width:0.9999904;fill-opacity:1"
     r="2.3279777"
     id="ellipse2355"
     transform="rotate(-45)"
     cy="66.070122"
     cx="7.5765548" />
  <circle
     style="fill:#50fa7b;stroke:none;stroke-width:0.9999904;fill-opacity:1"
     r="2.3279777"
     id="ellipse2357"
     transform="rotate(-45)"
     cy="41.421078"
     cx="-7.0296688" />
  <circle
     style="fill:#50fa7b;stroke:none;stroke-width:0.9999904;fill-opacity:1"
     r="2.3279777"
     id="ellipse2359"
     transform="rotate(-45)"
     cy="65.831238"
     cx="-7.0297217" />
  <rect
     style="fill:#50fa7b;stroke:none;stroke-width:0.9999904;fill-opacity:1"
     id="rect2361"
     transform="rotate(135)"
     height="27.328838"
     width="1.669984"
     y="-67.100105"
     x="-9.2475224" />
  <rect
     style="fill:#50fa7b;stroke:none;stroke-width:0.9999904;fill-opacity:1"
     id="rect2363"
     transform="rotate(135)"
     height="27.328838"
     width="1.669984"
     y="-66.766975"
     x="7.0291171" />
  <rect
     style="fill:#50fa7b;stroke:none;stroke-width:0.9999904;fill-opacity:1"
     id="rect2365"
     transform="rotate(45)"
     height="18.294825"
     width="1.6894838"
     y="-9.5957794"
     x="39.437408" />
  <rect
     style="fill:#50fa7b;stroke:none;stroke-width:0.9999904;fill-opacity:1"
     id="rect2367"
     transform="rotate(45)"
     height="18.294825"
     width="1.6894838"
     y="-9.5959663"
     x="66.070114" />
  <ellipse
     style="fill:#50fa7b;stroke:none;stroke-width:0.9999904;fill-opacity:1"
     id="ellipse2369"
     transform="rotate(-45)"
     ry="9.2769117"
     rx="5.741745"
     cy="53.434986"
     cx="0.44773841" />
  <path
     style="fill:#6846a6;stroke:none;stroke-width:2;stroke-linecap:round;stroke-linejoin:round;stroke-miterlimit:10;fill-opacity:1"
     inkscape:connector-curvature="0"
     id="path2371"
     d="M 47.425,35.1923 35.6923,46.925 c -0.0422,0.0422 -0.0886,0.0725 -0.1392,0.0987 -0.2062,0.1007 -0.4716,0.0578 -0.6501,-0.1206 l -6.2227,-6.2227 c -0.1785,-0.1785 -0.2214,-0.4439 -0.1206,-0.6501 0.0262,-0.0505 0.0565,-0.097 0.0987,-0.1392 L 40.391,28.1583 c 0.0422,-0.0422 0.0887,-0.0725 0.1392,-0.0987 0.2062,-0.1007 0.4716,-0.0578 0.6501,0.1206 l 6.2227,6.2227 c 0.1785,0.1785 0.2214,0.4439 0.1206,0.6501 -0.0262,0.0506 -0.0564,0.0971 -0.0986,0.1393 z"
     stroke-miterlimit="10" />
  <path
     style="fill:#ff79c6;stroke:none;stroke-width:2;stroke-linecap:round;stroke-miterlimit:10;fill-opacity:1"
     inkscape:connector-curvature="0"
     id="path2373"
     d="m 57.1856,13.5714 c 0.3645,0.3645 0.5189,0.8533 0.4674,1.325 0,0 0.0515,8.9017 -4.8025,13.9615 -0.0557,0.0643 -0.1158,0.1243 -0.1758,0.1844 -1.8352,1.8352 -4.8068,1.8309 -6.6377,0 -1.831,-1.831 -1.8352,-4.8025 0,-6.6377 l 8.8331,-8.8331 c 0.639,-0.639 1.6766,-0.639 2.3155,-10e-5 z"
     stroke-miterlimit="10" />
  <path
     style="fill:#ffffff;stroke:none;stroke-width:2;stroke-linecap:round;stroke-miterlimit:10"
     inkscape:connector-curvature="0"
     id="path2375"
     d="m 53.4268,21.7387 c 0.81,0.12 1.98,-0.36 2.98,-1.31 0.3,-0.29 0.56,-0.59 0.76,-0.9"
     stroke-miterlimit="10" />
  <path
     style="fill:#ffffff;stroke:none;stroke-width:2;stroke-linecap:round;stroke-miterlimit:10"
     inkscape:connector-curvature="0"
     id="path2377"
     d="m 56.0668,17.5587 c 0.58,-0.08 1.11,-0.36 1.49,-0.8"
     stroke-miterlimit="10" />
  <g
     id="hair" />
  <g
     id="skin" />
  <g
     id="skin-shadow" />
  <g
     id="line">
    <path
       stroke-miterlimit="10"
       d="M13.9792,56.7778 c0.3645,0.3645,0.8533,0.5189,1.325,0.4674c0,0,8.9017,0.0515,13.9615-4.8025C29.33,52.387,29.39,52.327,29.45,52.2669 c1.8352-1.8352,1.8309-4.8068,0-6.6377c-1.831-1.831-4.8025-1.8352-6.6377,0l-8.8331,8.8331 C13.3403,55.1013,13.3403,56.1389,13.9792,56.7778z"
       id="path2383"
       stroke-linecap="round"
       stroke-width="2"
       stroke="#000000"
       fill="none" />
    <line
       x1="17.2365"
       x2="17.2265"
       y1="57.1391"
       y2="57.1291"
       stroke-miterlimit="10"
       id="line2385"
       stroke-linecap="round"
       stroke-width="2"
       stroke="#000000"
       fill="none" />
    <path
       stroke-miterlimit="10"
       d="M22.1465,53.0191 c0.12,0.81-0.36,1.98-1.31,2.98c-0.29,0.3-0.59,0.56-0.9,0.76"
       id="path2387"
       stroke-linecap="round"
       stroke-width="2"
       stroke="#000000"
       fill="none" />
    <path
       stroke-miterlimit="10"
       d="M17.9665,55.6591 c-0.08,0.58-0.36,1.11-0.8,1.49"
       id="path2389"
       stroke-linecap="round"
       stroke-width="2"
       stroke="#000000"
       fill="none" />
    <path
       stroke-miterlimit="10"
       d="M41.0551,53.3579L22.4424,34.7451c-0.3905-0.3905-0.3905-1.0237,0-1.4142l11.2424-11.2424c0.3905-0.3905,1.0237-0.3905,1.4142,0 l18.6127,18.6127c0.3905,0.3905,0.3905,1.0237,0,1.4142L42.4693,53.3579C42.0788,53.7484,41.4456,53.7484,41.0551,53.3579z"
       id="path2391"
       stroke-linejoin="round"
       stroke-linecap="round"
       stroke-width="2"
       stroke="#000000"
       fill="none" />
    <path
       stroke-miterlimit="10"
       d="M47.425,35.1923L35.6923,46.925c-0.0422,0.0422-0.0886,0.0725-0.1392,0.0987c-0.2062,0.1007-0.4716,0.0578-0.6501-0.1206 l-6.2227-6.2227c-0.1785-0.1785-0.2214-0.4439-0.1206-0.6501c0.0262-0.0505,0.0565-0.097,0.0987-0.1392L40.391,28.1583 c0.0422-0.0422,0.0887-0.0725,0.1392-0.0987c0.2062-0.1007,0.4716-0.0578,0.6501,0.1206l6.2227,6.2227 c0.1785,0.1785,0.2214,0.4439,0.1206,0.6501C47.4974,35.1036,47.4672,35.1501,47.425,35.1923z"
       id="path2393"
       stroke-linejoin="round"
       stroke-linecap="round"
       stroke-width="2"
       stroke="#000000"
       fill="none" />
    <path
       stroke-miterlimit="10"
       d="M57.1856,13.5714 c0.3645,0.3645,0.5189,0.8533,0.4674,1.325c0,0,0.0515,8.9017-4.8025,13.9615c-0.0557,0.0643-0.1158,0.1243-0.1758,0.1844 c-1.8352,1.8352-4.8068,1.8309-6.6377,0c-1.831-1.831-1.8352-4.8025,0-6.6377l8.8331-8.8331 C55.5091,12.9325,56.5467,12.9325,57.1856,13.5714z"
       id="path2395"
       stroke-linecap="round"
       stroke-width="2"
       stroke="#000000"
       fill="none" />
    <line
       x1="57.5468"
       x2="57.5368"
       y1="16.8287"
       y2="16.8187"
       stroke-miterlimit="10"
       id="line2397"
       stroke-linecap="round"
       stroke-width="2"
       stroke="#000000"
       fill="none" />
    <path
       stroke-miterlimit="10"
       d="M53.4268,21.7387 c0.81,0.12,1.98-0.36,2.98-1.31c0.3-0.29,0.56-0.59,0.76-0.9"
       id="path2399"
       stroke-linecap="round"
       stroke-width="2"
       stroke="#000000"
       fill="none" />
    <path
       stroke-miterlimit="10"
       d="M56.0668,17.5587 c0.58-0.08,1.11-0.36,1.49-0.8"
       id="path2401"
       stroke-linecap="round"
       stroke-width="2"
       stroke="#000000"
       fill="none" />
  </g>
  <path
     inkscape:connector-curvature="0"
     style="fill:#6846a6;fill-opacity:1;stroke:none;stroke-width:2.11125875;stroke-miterlimit:10"
     stroke-miterlimit="10"
     d="m 9.1525424,-92.346679 c 11.5648316,0 20.9399716,9.53034 20.9399716,21.28662 v 10.694511 5.05121 H -11.78743 v -5.05121 -10.694511 c 0,-11.75628 9.3751394,-21.28662 20.9399724,-21.28662"
     id="path71" />
  <polygon
     style="fill:#ff79c6;fill-opacity:1;stroke:none;stroke-width:2;stroke-linecap:round;stroke-linejoin:round;stroke-miterlimit:10"
     stroke-miterlimit="10"
     points="62.1381,46.1136 46.6142,38.4016 31.0902,46.1136 31.0902,30.6897 46.6142,38.4016 62.1381,30.6897 "
     id="polygon73"
     transform="matrix(1.0469986,0,0,1.0643313,-55.211729,-64.973773)" />
</svg>
