<?xml version="1.0" encoding="UTF-8" standalone="no"?>
<svg
   xmlns:dc="http://purl.org/dc/elements/1.1/"
   xmlns:cc="http://creativecommons.org/ns#"
   xmlns:rdf="http://www.w3.org/1999/02/22-rdf-syntax-ns#"
   xmlns:svg="http://www.w3.org/2000/svg"
   xmlns="http://www.w3.org/2000/svg"
   xmlns:sodipodi="http://sodipodi.sourceforge.net/DTD/sodipodi-0.dtd"
   xmlns:inkscape="http://www.inkscape.org/namespaces/inkscape"
   id="emoji"
   viewBox="0 0 72 72"
   version="1.1"
   sodipodi:docname="selfie_2.svg"
   inkscape:version="0.92.4 (5da689c313, 2019-01-14)">
  <metadata
     id="metadata3651">
    <rdf:RDF>
      <cc:Work
         rdf:about="">
        <dc:format>image/svg+xml</dc:format>
        <dc:type
           rdf:resource="http://purl.org/dc/dcmitype/StillImage" />
        <dc:title></dc:title>
      </cc:Work>
    </rdf:RDF>
  </metadata>
  <defs
     id="defs3649" />
  <sodipodi:namedview
     pagecolor="#ffffff"
     bordercolor="#666666"
     borderopacity="1"
     objecttolerance="10"
     gridtolerance="10"
     guidetolerance="10"
     inkscape:pageopacity="0"
     inkscape:pageshadow="2"
     inkscape:window-width="849"
     inkscape:window-height="1401"
     id="namedview3647"
     showgrid="false"
     inkscape:snap-global="true"
     inkscape:zoom="3.2777778"
     inkscape:cx="3.6610169"
     inkscape:cy="36"
     inkscape:window-x="854"
     inkscape:window-y="18"
     inkscape:window-maximized="0"
     inkscape:current-layer="emoji" />
  <path
     style="fill:#bd93f9;fill-opacity:1"
     inkscape:connector-curvature="0"
     id="path3601"
     d="m 4,70.6667 v -17.5 L 26.75,52.25 43.4167,34.3333 c 1.0833,2.2917 7.6667,6.25 10.0833,6.5 L 38.5,65.75 C 37.4583,67.625 23.0693,70.6667 4,70.6667 Z" />
  <polyline
     style="fill:#92d3f5"
     id="polyline3603"
     points="64.2079,27.8958 64.2498,4.9708 49.6758,5.0494 49.6368,26.3997" />
  <g
     id="hair" />
  <g
     id="skin">
    <path
       fill="#a57939"
       d="M64.837,20.0537c1.0597,0.1522,1.6563,0.9253,1.6457,1.9381c-0.0099,0.9466-0.5375,1.9321-1.6843,1.9033 c0,0-1.2147-0.0379-1.6188-0.015c-0.1713,0.0097-0.3427,0.0192-0.5125-0.0051c-1.0597-0.1522-1.7953-1.1346-1.6431-2.1943 s1.1346-1.7953,2.1943-1.6431C63.2183,20.0376,64.837,20.0539,64.837,20.0537z"
       id="path3607" />
    <path
       fill="#a57939"
       d="M64.8758,16.1978c1.0597,0.1522,1.6563,0.9253,1.6457,1.9381c-0.0099,0.9466-0.5375,1.9321-1.6843,1.9033 c0,0-1.2147-0.0379-1.6188-0.015c-0.1713,0.0097-0.3427,0.0192-0.5125-0.0051c-1.0597-0.1522-1.7953-1.1346-1.6431-2.1943 s1.1346-1.7953,2.1943-1.6431C63.257,16.1818,64.8758,16.198,64.8758,16.1978z"
       id="path3609" />
    <path
       fill="#a57939"
       d="M51.2751,26.2517c-0.2374-0.9177-0.7139-1.7561-1.381-2.4296l0.0252-0.0391l0.5511-0.8399 c0.2598-0.396,1.1637-0.3694,2.008,0.0605l0.4053,0.2057c0.8445,0.4295,1.8686,0.2729,2.3229-0.4194 c0.4543-0.6923,0.1396-1.6255-0.6525-2.1452l-3.6001-2.3623c-0.7818-0.5361-1.8459-0.3709-2.4284,0.377l-2.8853,3.8816 c-2.0153,3.1257,1.0264,12.2507-0.9736,13.1465c1.6544,1.5527,3.2083,2.7292,7.1282,4.6602 c1.7052-4.6602,9.7468-6.5977,11.5385-12.681"
       id="path3611" />
  </g>
  <g
     id="skin-shadow" />
  <g
     id="line">
    <line
       x1="4"
       x2="4"
       y1="53.1667"
       y2="70.6667"
       fill="none"
       stroke="#000000"
       stroke-linecap="round"
       stroke-linejoin="round"
       stroke-miterlimit="10"
       stroke-width="2"
       id="line3615" />
    <line
       x1="26.75"
       x2="4"
       y1="52.25"
       y2="53.1667"
       fill="none"
       stroke="#000000"
       stroke-linecap="round"
       stroke-linejoin="round"
       stroke-miterlimit="10"
       stroke-width="2"
       id="line3617" />
    <line
       x1="53.5"
       x2="38.5"
       y1="40.8333"
       y2="65.75"
       fill="none"
       stroke="#000000"
       stroke-linecap="round"
       stroke-linejoin="round"
       stroke-miterlimit="10"
       stroke-width="2"
       id="line3619" />
    <line
       x1="43.4167"
       x2="26.75"
       y1="34.3333"
       y2="52.25"
       fill="none"
       stroke="#000000"
       stroke-linecap="round"
       stroke-linejoin="round"
       stroke-miterlimit="10"
       stroke-width="2"
       id="line3621" />
    <path
       fill="none"
       stroke="#000000"
       stroke-linecap="round"
       stroke-linejoin="round"
       stroke-miterlimit="10"
       stroke-width="2"
       d="M38.5,65.75c-1.0417,1.875-15.4307,4.9167-34.5,4.9167"
       id="path3623" />
    <path
       fill="none"
       stroke="#000000"
       stroke-linecap="round"
       stroke-linejoin="round"
       stroke-miterlimit="10"
       stroke-width="2"
       d="M43.4167,34.3333c1.0833,2.2917,7.6667,6.25,10.0833,6.5"
       id="path3625" />
    <path
       fill="none"
       stroke="#000000"
       stroke-linecap="round"
       stroke-linejoin="round"
       stroke-width="2"
       d="M49.9193,23.783 l0.5511-0.8399c0.2598-0.396,1.1637-0.3694,2.008,0.0605l0.4053,0.2057c0.8445,0.4295,1.8686,0.2729,2.3229-0.4194 c0.4543-0.6923,0.1396-1.6255-0.6525-2.1452l-3.6001-2.3623c-0.7818-0.5361-1.8459-0.3709-2.4284,0.377l-2.8853,3.8816"
       id="path3627" />
    <path
       fill="none"
       stroke="#000000"
       stroke-linecap="round"
       stroke-linejoin="round"
       stroke-width="2"
       d="M51.2751,26.2517 c-0.2374-0.9177-0.7139-1.7561-1.381-2.4296"
       id="path3629" />
    <path
       fill="none"
       stroke="#000000"
       stroke-linecap="round"
       stroke-linejoin="round"
       stroke-width="2"
       d="M45.6403,22.541 c-2.0153,3.1257,1.0264,12.2507-0.9736,13.1465"
       id="path3631" />
    <path
       fill="none"
       stroke="#000000"
       stroke-linecap="round"
       stroke-linejoin="round"
       stroke-width="2"
       d="M63.3333,27.6667 C61.5417,33.75,53.5,35.6875,51.7948,40.3477"
       id="path3633" />
    <path
       fill="none"
       stroke="#000000"
       stroke-linecap="round"
       stroke-linejoin="round"
       stroke-width="2"
       d="M64.837,20.0537 c1.0597,0.1522,1.6563,0.9253,1.6457,1.9381c-0.0099,0.9466-0.5375,1.9321-1.6843,1.9033c0,0-1.2147-0.0379-1.6188-0.015 c-0.1713,0.0097-0.3427,0.0192-0.5125-0.0051c-1.0597-0.1522-1.7953-1.1346-1.6431-2.1943s1.1346-1.7953,2.1943-1.6431 C63.2183,20.0376,64.837,20.0539,64.837,20.0537z"
       id="path3635" />
    <path
       fill="none"
       stroke="#000000"
       stroke-linecap="round"
       stroke-linejoin="round"
       stroke-width="2"
       d="M64.8758,16.1978 c1.0597,0.1522,1.6563,0.9253,1.6457,1.9381c-0.0099,0.9466-0.5375,1.9321-1.6843,1.9033c0,0-1.2147-0.0379-1.6188-0.015 c-0.1713,0.0097-0.3427,0.0192-0.5125-0.0051c-1.0597-0.1522-1.7953-1.1346-1.6431-2.1943s1.1346-1.7953,2.1943-1.6431 C63.257,16.1818,64.8758,16.198,64.8758,16.1978z"
       id="path3637" />
    <line
       x1="63.28"
       x2="63.28"
       y1="12.6399"
       y2="4"
       fill="none"
       stroke="#000000"
       stroke-linecap="round"
       stroke-linejoin="round"
       stroke-width="2"
       id="line3639" />
    <line
       x1="50.5846"
       x2="63.28"
       y1="4"
       y2="4"
       fill="none"
       stroke="#000000"
       stroke-linecap="round"
       stroke-linejoin="round"
       stroke-width="2"
       id="line3641" />
    <line
       x1="50.5846"
       x2="50.5846"
       y1="4"
       y2="14.5552"
       fill="none"
       stroke="#000000"
       stroke-linecap="round"
       stroke-linejoin="round"
       stroke-width="2"
       id="line3643" />
  </g>
</svg>
